<svg xmlns="http://www.w3.org/2000/svg" version="1.1" xmlns:xlink="http://www.w3.org/1999/xlink" width="512" height="512" x="0" y="0" viewBox="0 0 24 24" style="enable-background:new 0 0 512 512" xml:space="preserve" class=""><g><path d="M22.435 13.92a4.49 4.49 0 0 0-1.471-1.968c.889-.481 2.286-1.48 3.001-3.266a.5.5 0 0 0-.929-.371c-.825 2.063-2.793 2.901-3.127 3.031a4.444 4.444 0 0 0-1.646-.342l.234-4.396 1.341-3.41c.396-.892.055-1.936-.775-2.38A6.9 6.9 0 0 0 16.009 0c-.952 0-1.968.255-2.961.757-.903.457-1.293 1.529-.896 2.423l1.353 3.43.239 4.39H11V7.5c0-.651-.419-1.201-1-1.408V1.049A1.049 1.049 0 0 0 8.485.111L6.844.932C6.323 1.191 6 1.712 6 2.294v3.797c-.581.207-1 .757-1 1.408v3.573a4.522 4.522 0 0 0-3.446 2.855L.257 17.409a5.013 5.013 0 0 0 4.75 6.59h13.986a5.013 5.013 0 0 0 4.744-6.608l-1.302-3.473zM13.499 1.65c.851-.431 1.677-.653 2.51-.649.811-.016 1.724.24 2.581.699.37.197.516.677.324 1.111L17.66 6h-3.319l-1.266-3.207a.885.885 0 0 1 .424-1.144zM14.528 7h2.945l-.212 4h-2.515zM7 2.295a.52.52 0 0 1 .29-.468L9 1.049V6H7zM6 7.5a.5.5 0 0 1 .5-.5h3a.5.5 0 0 1 .5.5V11H6zM18.993 23H5.007A4.012 4.012 0 0 1 1.2 17.743l1.291-3.466A3.516 3.516 0 0 1 5.771 12h12.45c1.451 0 2.768.913 3.277 2.271l1.296 3.455A4.011 4.011 0 0 1 18.993 23z" fill="#abbcab" opacity="1" data-original="#000000" class=""></path></g></svg>