<svg xmlns="http://www.w3.org/2000/svg" version="1.1" xmlns:xlink="http://www.w3.org/1999/xlink" width="512" height="512" x="0" y="0" viewBox="0 0 24 24" style="enable-background:new 0 0 512 512" xml:space="preserve" class=""><g><path d="M23.5 8h-2.753a3.507 3.507 0 0 0-3.042 1.77c-.214.375-.404.707-.477.829-1.091 1.822-2.991 2.991-3.205 3.119-.781.467-1.862.314-2.488-.356a2.016 2.016 0 0 1-.528-1.533c.041-.617.429-1.211 1.037-1.59C13.323 9.442 14 8.495 14 7.5a2.506 2.506 0 0 0-2.921-2.466C9.893 5.23 9 6.339 9 7.613V12.5a1.497 1.497 0 0 1-1.756 1.479C6.535 13.864 6 13.182 6 12.393V6.5c0-1.134.345-2.189.936-3.065l.302-.403.003-.007A5.49 5.49 0 0 1 11.5 1h12a.5.5 0 0 0 0-1H9.779C8.197 0 6.66.318 5.21.947L1.503 2.552A2.51 2.51 0 0 0 .185 3.905a2.474 2.474 0 0 0 .014 1.911 2.494 2.494 0 0 0 2.296 1.528c.096 0 .189-.018.284-.029L1.37 9.195a2.48 2.48 0 0 0-.299 1.89c.156.652.827 1.913 2.417 1.913.199 0 1.25-.307 1.521-.51.044 1.233.917 2.29 2.076 2.479a2.504 2.504 0 0 0 2.916-2.466V7.614c0-.791.534-1.475 1.242-1.592.452-.071.885.044 1.227.335.338.287.531.704.531 1.144 0 .798-.808 1.469-1.485 1.891-.881.549-1.443 1.436-1.506 2.372a3.004 3.004 0 0 0 2.992 3.237c.542 0 1.073-.147 1.536-.424.384-.229 2.358-1.474 3.55-3.464.075-.125.27-.464.487-.847a2.503 2.503 0 0 1 2.173-1.264h2.753a.5.5 0 0 0 0-1ZM3.1 6.219a1.509 1.509 0 0 1-1.161.017 1.499 1.499 0 0 1-.819-.81 1.498 1.498 0 0 1 .778-1.955l3.709-1.606c.694-.3 1.41-.519 2.141-.663A6.492 6.492 0 0 0 6.44 2.431l-.002.002-2.572 3.432-.766.355Zm.751 5.734a1.47 1.47 0 0 1-1.137-.176 1.482 1.482 0 0 1-.672-.927 1.476 1.476 0 0 1 .154-1.094l2.83-3.774A6.37 6.37 0 0 0 5 6.5v4.452l-.228.344c-.195.32-.54.565-.922.658ZM12.5 16h-5A2.503 2.503 0 0 0 5 18.5v3C5 22.878 6.121 24 7.5 24h5c1.379 0 2.5-1.122 2.5-2.5v-3c0-1.378-1.121-2.5-2.5-2.5Zm1.5 5.5c0 .827-.673 1.5-1.5 1.5h-5c-.827 0-1.5-.673-1.5-1.5v-3c0-.827.673-1.5 1.5-1.5h5c.827 0 1.5.673 1.5 1.5v3Zm-2-2a.5.5 0 0 1-.5.5h-3a.5.5 0 0 1 0-1h3a.5.5 0 0 1 .5.5Z" fill="#282929" opacity="1" data-original="#000000" class=""></path></g></svg>