<svg xmlns="http://www.w3.org/2000/svg" version="1.1" xmlns:xlink="http://www.w3.org/1999/xlink" width="512" height="512" x="0" y="0" viewBox="0 0 24 24" style="enable-background:new 0 0 512 512" xml:space="preserve" class=""><g><path d="M0 9.5A.5.5 0 0 1 .5 9h5a.5.5 0 0 1 0 1h-5a.5.5 0 0 1-.5-.5Zm24 1v5a3.507 3.507 0 0 1-2.268 3.276c.176.384.268.798.268 1.224 0 1.654-1.346 3-3 3s-3-1.346-3-3c0-.344.06-.681.176-1H7.824c.116.319.176.656.176 1 0 1.654-1.346 3-3 3s-3-1.346-3-3c0-.426.092-.84.268-1.224A3.507 3.507 0 0 1 0 15.5v-3a.5.5 0 0 1 1 0v3C1 16.878 2.121 18 3.5 18H16V5.5C16 3.57 14.43 2 12.5 2a.5.5 0 0 1 0-1C14.981 1 17 3.019 17 5.5V6h2.5c2.481 0 4.5 2.019 4.5 4.5ZM17 7v5h6v-1.5C23 8.57 21.43 7 19.5 7H17ZM6.723 19H3.5c-.073 0-.146-.003-.219-.007A1.948 1.948 0 0 0 3 20c0 1.103.897 2 2 2s2-.897 2-2a1.95 1.95 0 0 0-.277-1Zm13.996-.007A3.163 3.163 0 0 1 20.5 19h-3.223A1.95 1.95 0 0 0 17 20c0 1.103.897 2 2 2s2-.897 2-2c0-.355-.097-.698-.281-1.007ZM23 15.5V13h-6v5h3.5c1.379 0 2.5-1.122 2.5-2.5ZM.5 2h9a.5.5 0 0 0 0-1h-9a.5.5 0 0 0 0 1Zm0 4h7a.5.5 0 0 0 0-1h-7a.5.5 0 0 0 0 1Z" fill="#abbcab" opacity="1" data-original="#000000"></path></g></svg>