<svg xmlns="http://www.w3.org/2000/svg" version="1.1" xmlns:xlink="http://www.w3.org/1999/xlink" width="512" height="512" x="0" y="0" viewBox="0 0 24 24" style="enable-background:new 0 0 512 512" xml:space="preserve" class=""><g><path d="M12 0C7.96 0 4.211 2.066 2 5.413V.5a.5.5 0 0 0-1 0v5C1 6.327 1.673 7 2.5 7h5a.5.5 0 0 0 0-1H2.808C4.831 2.909 8.282 1 12 1c6.065 0 11 4.935 11 11s-4.935 11-11 11A10.97 10.97 0 0 1 1.011 12.479c-.013-.276-.21-.502-.521-.478a.502.502 0 0 0-.479.521A11.97 11.97 0 0 0 12 24.001c6.617 0 12-5.383 12-12S18.617 0 12 0Z" fill="#282929" opacity="1" data-original="#000000"></path><path d="M11.5 6a.5.5 0 0 0-.5.5V12c0 .133.053.26.146.354l3 3a.498.498 0 0 0 .708 0 .5.5 0 0 0 0-.707L12 11.793V6.5a.5.5 0 0 0-.5-.5Z" fill="#282929" opacity="1" data-original="#000000"></path></g></svg>