<svg xmlns="http://www.w3.org/2000/svg" version="1.1" xmlns:xlink="http://www.w3.org/1999/xlink" width="512" height="512" x="0" y="0" viewBox="0 0 24 24" style="enable-background:new 0 0 512 512" xml:space="preserve"><g><path d="M21 21v3h-1v-3c0-1.654-1.346-3-3-3H7c-1.654 0-3 1.346-3 3v3H3v-3c0-2.206 1.794-4 4-4h10c2.206 0 4 1.794 4 4ZM4 9H3a9.018 9.018 0 0 1 3.011-6.719A9.066 9.066 0 0 1 13.06.061c3.997.458 7.299 3.676 7.851 7.652a9.122 9.122 0 0 1-.525 4.565C19.748 13.906 18.085 15 16.249 15h-4.248c-1.103 0-2-.897-2-2s.897-2 2-2a2.002 2.002 0 0 1 1.731 3h2.517c1.429 0 2.717-.839 3.205-2.087a8.111 8.111 0 0 0 .467-4.063c-.49-3.531-3.424-6.389-6.974-6.795-2.319-.266-4.545.436-6.27 1.974A8.013 8.013 0 0 0 4 9.001Zm8 5a1.001 1.001 0 1 0-1-1c0 .552.449 1 1 1Zm0-10c2.757 0 5 2.243 5 5 0 1.133-.401 2.161-1.04 3h1.227a5.934 5.934 0 0 0 .814-3c0-3.309-2.691-6-6-6s-6 2.691-6 6c0 1.796.797 3.405 2.051 4.506-.021-.167-.051-.333-.051-.506 0-.31.043-.608.11-.898A4.948 4.948 0 0 1 7.001 9c0-2.757 2.243-5 5-5Z" fill="#abbcab" opacity="1" data-original="#000000"></path></g></svg>