<svg xmlns="http://www.w3.org/2000/svg" version="1.1" xmlns:xlink="http://www.w3.org/1999/xlink" width="512" height="512" x="0" y="0" viewBox="0 0 24 24" style="enable-background:new 0 0 512 512" xml:space="preserve" class=""><g><path d="M20.91 7.713C20.358 3.736 17.057.519 13.06.061c-2.505-.288-4.939.441-6.851 2.05a9.031 9.031 0 0 0-3.193 6.36.499.499 0 0 0 .47.528.495.495 0 0 0 .528-.47 8.026 8.026 0 0 1 2.839-5.654 7.954 7.954 0 0 1 6.093-1.82c3.55.406 6.483 3.264 6.974 6.795a8.11 8.11 0 0 1-.467 4.063C18.965 13.161 17.677 14 16.248 14h-2.517A2.002 2.002 0 0 0 12 11c-1.103 0-2 .897-2 2s.897 2 2 2h4.248c1.836 0 3.499-1.094 4.137-2.722.56-1.432.741-3.01.525-4.565ZM11 13a1.001 1.001 0 1 1 1 1c-.551 0-1-.448-1-1Zm5.455-1.728A5.006 5.006 0 0 0 12 4C9.243 4 7 6.243 7 9a5.01 5.01 0 0 0 1.143 3.182.5.5 0 1 1-.771.636A6.012 6.012 0 0 1 6 9c0-3.309 2.691-6 6-6a6.006 6.006 0 0 1 5.346 8.728.5.5 0 0 1-.891-.455Zm3.534 12.126a.498.498 0 0 1-.388.591.498.498 0 0 1-.591-.388c-.676-3.246-3.624-5.602-7.011-5.602s-6.335 2.355-7.01 5.602a.5.5 0 1 1-.979-.204c.771-3.708 4.131-6.398 7.99-6.398s7.218 2.69 7.989 6.398Z" fill="#282929" opacity="1" data-original="#000000" class=""></path></g></svg>