<svg xmlns="http://www.w3.org/2000/svg" version="1.1" xmlns:xlink="http://www.w3.org/1999/xlink" width="512" height="512" x="0" y="0" viewBox="0 0 24 24" style="enable-background:new 0 0 512 512" xml:space="preserve" class=""><g><path d="M20 15a1 1 0 1 1 0 2 1 1 0 0 1 0-2Zm2.751-6.665a.5.5 0 1 0-.473.881c.49.243.722.82.722 1.367V21.5a1.5 1.5 0 0 1-1.5 1.5h-17A3.5 3.5 0 0 1 1 19.5v-11c0-.349.067-.679.162-.997A4.511 4.511 0 0 0 4.5 9h12a.5.5 0 0 0 0-1h-12a3.507 3.507 0 0 1-2.864-1.5A3.494 3.494 0 0 1 4.5 5h9a.5.5 0 0 0 0-1h-9A4.5 4.5 0 0 0 0 8.5v11A4.5 4.5 0 0 0 4.5 24h17a2.5 2.5 0 0 0 2.5-2.5v-11a2.51 2.51 0 0 0-1.249-2.165ZM16 4a.497.497 0 0 0 .349-.142L19 1.276V8.5a.5.5 0 0 0 1 0V1.313l2.653 2.548a.5.5 0 1 0 .693-.722L20.54.445C20.308.213 19.861 0 19.499 0s-.831.196-1.075.44l-2.773 2.701a.5.5 0 0 0 .348.858Z" fill="#abbcab" opacity="1" data-original="#000000" class=""></path></g></svg>